# xmcd
#
# Track frame offsets:
#	150
#	19324
#	43614
#	66656
#	106530
#	124512
#	145822
#	166869
#	188068
#	217595
#
# Disc length: 3193 seconds
#
# Revision: 5
# Processed by: cddbd v1.5.1PL2 Copyright (c) Steve Scherf et al.
# Submitted via: EasyCDDAExtractor 9.0.0.1
#
DISCID=800c770a
DTITLE=Les Négresses Vertes - Trabendo
DYEAR=1900
DGENRE=Blues
TTITLE0=Leila
TTITLE1=Les mégots
TTITLE2=Hasta Llegar
TTITLE3=Ce pays
TTITLE4=Easy girls
TTITLE5=Chien des ports
TTITLE6=Ignacius
TTITLE7=Green magic Leila
TTITLE8=Route 99
TTITLE9=Les années sans lumière
EXTD=
EXTT0=
EXTT1=
EXTT2=
EXTT3=
EXTT4=
EXTT5=
EXTT6=
EXTT7=
EXTT8=
EXTT9=
PLAYORDER=
